# xmcd
#
# Track frame offsets: 
#        150
#        18375
#        37255
#        52741
#        75841
#        94441
#        106678
#        124753
#        139603
#        155153
#
# Disc length: 2354 seconds
#
# Revision: 0
# Processed by: cddbd v1.5.2PL0 Copyright (c) Steve Scherf et al.
# Submitted via: ExactAudioCopy v1.1
#
DISCID=7709300a
DTITLE=Steve Gray - When Heaven Came Down
DYEAR=2000
DGENRE=Country
TTITLE0=When Heaven Came Down
TTITLE1=The Chariots Of God
TTITLE2=Trial Of Your Faith
TTITLE3=Return To The Lord
TTITLE4=I Want To Tell You I Love You
TTITLE5=Shine Your Light
TTITLE6=Pour Down From The Skies
TTITLE7=One More Time
TTITLE8=Living Sacrifice
TTITLE9=Burning Ships Upon The Shore
EXTD=
EXTT0=
EXTT1=
EXTT2=
EXTT3=
EXTT4=
EXTT5=
EXTT6=
EXTT7=
EXTT8=
EXTT9=
PLAYORDER=
